<svg version="1.2" xmlns="http://www.w3.org/2000/svg" viewBox="0 0 1640 664" width="1640" height="664">
	<title>FitMemo_Logo</title>
	<style>
		.s0 { fill: #000000 } 
	</style>
	<path id="fit.memo " class="s0" aria-label="fit.memo
"  d="m336.3 175.2v58.1h-116.2v14.5h87.1v43.6h-87.1v72.6h-58.1v-188.8zm72.6 0v188.8h-58.1v-188.8zm188.8 0v58.1h-58.1v130.7h-58.1v-130.7h-58.1v-58.1zm72.7 159.8q0 11.9-8.7 20.6-8.5 8.4-20.4 8.4-11.9 0-20.6-8.4-8.4-8.7-8.4-20.6 0-12 8.4-20.4 8.7-8.7 20.6-8.7 11.9 0 20.4 8.7 8.7 8.4 8.7 20.4zm217.8-159.8v188.8h-58.1v-63.9l-43.5 63.9-43.6-63.9v63.9h-58.1v-188.8h58.1l43.6 63.9 43.5-63.9zm188.9 130.7v58.1h-174.3v-188.8h174.3v58.1h-116.2v14.5h87.1v43.6h-87.1v14.5zm217.8-130.7v188.8h-58.1v-63.9l-43.5 63.9-43.6-63.9v63.9h-58.1v-188.8h58.1l43.6 63.9 43.5-63.9zm203.4 94.4q0 38.9-27.9 66.8-27.6 27.6-66.5 27.6-39.2 0-66.8-27.6-27.6-27.6-27.6-66.8 0-38.9 27.6-66.5 27.8-27.9 66.8-27.9 38.9 0 66.5 27.9 27.9 27.6 27.9 66.5zm-58.1 0q0-14.8-10.8-25.6-10.7-10.7-25.5-10.7-15.1 0-25.9 10.7-10.4 10.5-10.4 25.6 0 15.1 10.4 25.8 10.8 10.5 25.9 10.5 15.1 0 25.5-10.5 10.8-10.7 10.8-25.8z"/>
</svg>